<svg width="64" height="74" viewBox="0 0 64 74" fill="none" xmlns="http://www.w3.org/2000/svg">
<path d="M30.8785 48.2352C40.9597 48.2352 49.132 40.0628 49.132 29.9817C49.132 19.9005 40.9597 11.7281 30.8785 11.7281C20.7974 11.7281 12.625 19.9005 12.625 29.9817C12.625 40.0628 20.7974 48.2352 30.8785 48.2352Z" stroke="#738B69" stroke-width="3" stroke-linecap="round" stroke-linejoin="round"/>
<path d="M16.0106 6.84326L22.2445 7.91756C22.8659 8.02355 23.5019 7.85012 23.9788 7.44063L29.7598 2.50751C30.6029 1.7897 31.8506 1.83788 32.6358 2.62313L37.1017 7.08895C37.5352 7.52253 38.1278 7.74413 38.7396 7.70559L45.8599 7.24311C46.886 7.17567 47.811 7.85494 48.0567 8.85216L49.6609 15.3462C49.8006 15.9098 50.1619 16.3915 50.6677 16.6806L56.4006 19.9565C57.3689 20.5105 57.7447 21.7197 57.2533 22.7266L54.382 28.6136C54.1074 29.1772 54.0978 29.8372 54.3531 30.4105L57.4122 37.2176C57.8699 38.2389 57.4556 39.4385 56.468 39.9636L51.1591 42.7626C50.6196 43.0468 50.2294 43.5526 50.0848 44.1452L48.3843 51.2462C48.1386 52.2819 47.1558 52.9757 46.0959 52.86L38.9227 52.0989C38.2675 52.0314 37.6171 52.2675 37.1643 52.7444L32.6937 57.4318C31.8939 58.2701 30.5643 58.3134 29.7164 57.5234L24.4027 52.5854C23.9258 52.1422 23.2706 51.9447 22.6299 52.0459L15.8179 53.1202C14.5702 53.3177 13.4285 52.3831 13.3707 51.1209L13.1009 45.1472C13.0672 44.4101 12.6528 43.7405 12.0073 43.384L5.3736 39.7227C4.43901 39.2072 4.03434 38.0703 4.42937 37.0779L7.23316 30.0733C7.45958 29.5096 7.43068 28.8737 7.15608 28.3293L4.47755 23.0493C3.94762 22.0039 4.36675 20.7273 5.41214 20.2022L11.2365 17.2539C11.8387 16.9504 12.2578 16.3771 12.3686 15.7123L13.5537 8.59683C13.7464 7.43581 14.8448 6.65538 16.0058 6.85771L16.0106 6.84326Z" stroke="#738B69" stroke-width="3" stroke-linecap="round" stroke-linejoin="round"/>
<path d="M20.332 28.0018L29.1336 36.7311L40.8835 22.004" stroke="#738B69" stroke-width="3" stroke-linecap="round" stroke-linejoin="round"/>
<path d="M12.3546 43.7166L2.13184 64.3981L13.3711 61.1896L18.7233 72.0001L26.5132 54.7149" stroke="#738B69" stroke-width="3" stroke-linecap="round" stroke-linejoin="round"/>
<path d="M37.4053 52.5469L44.8483 70.9305L50.4125 60.226L61.8685 64.292L51.3471 42.7" stroke="#738B69" stroke-width="3" stroke-linecap="round" stroke-linejoin="round"/>
</svg>
