<svg width="74" height="74" viewBox="0 0 74 74" fill="none" xmlns="http://www.w3.org/2000/svg">
<path d="M71.9816 37.1353C71.9816 46.7998 64.1491 54.6322 54.4846 54.6322C44.8201 54.6322 37 46.812 37 37.1475V36.9939C37 27.3294 29.1676 19.4969 19.5031 19.4969C9.83857 19.4969 2.00614 27.3294 2.00614 36.9939M72 37C72 56.329 56.329 72 37 72C17.671 72 2 56.329 2 37C2 17.671 17.671 2 37 2C56.329 2 72 17.671 72 37Z" stroke="#738B69" stroke-width="3" stroke-linecap="round" stroke-linejoin="round"/>
<path d="M19.8659 44.8447C23.9302 44.8447 27.2249 41.5499 27.2249 37.4856C27.2249 33.4213 23.9302 30.1266 19.8659 30.1266C15.8016 30.1266 12.5068 33.4213 12.5068 37.4856C12.5068 41.5499 15.8016 44.8447 19.8659 44.8447Z" stroke="#738B69" stroke-width="3" stroke-linecap="round" stroke-linejoin="round"/>
<path d="M55.4489 44.8447C59.5132 44.8447 62.8079 41.5499 62.8079 37.4856C62.8079 33.4213 59.5132 30.1266 55.4489 30.1266C51.3846 30.1266 48.0898 33.4213 48.0898 37.4856C48.0898 41.5499 51.3846 44.8447 55.4489 44.8447Z" stroke="#738B69" stroke-width="3" stroke-linecap="round" stroke-linejoin="round"/>
</svg>
