<svg width="64" height="64" viewBox="0 0 64 64" fill="none" xmlns="http://www.w3.org/2000/svg">
<path fill-rule="evenodd" clip-rule="evenodd" d="M46.3633 62.0007C37.3482 62.0007 26.0472 56.2973 16.8758 47.1166C2.86569 33.0927 -2.13858 15.288 5.71739 7.42743C7.33642 5.7854 7.85617 5.26105 9.4522 3.69262C10.5285 2.63473 12.1843 2 13.8815 2C15.5787 2 17.0736 2.60254 18.1775 3.69262C19.8379 5.33005 22.5838 8.85328 26.8154 14.782L26.8936 14.8878L26.9809 14.9844C27.4225 15.4766 28.2504 16.3919 26.4612 18.802C26.1438 19.2298 25.7529 19.6851 25.2377 20.2279C24.9848 20.4946 24.787 20.6924 24.373 21.1064L21.8985 23.5855C18.8812 26.6028 27.9928 35.7972 28.0894 35.8892C31.8242 39.6286 36.6629 42.7839 38.6499 42.7839C39.3168 42.7839 39.9332 42.5355 40.3885 42.0802L42.8631 39.6056C44.2245 38.2442 44.8041 37.7336 45.5768 37.2277C46.3587 36.7171 47.0854 36.4458 47.6834 36.4458C47.9823 36.4458 48.4377 36.5009 48.9896 36.9977L49.0816 37.0805L49.1828 37.1541C55.4013 41.6018 58.7222 44.1913 60.2768 45.8104C62.8479 48.4827 62.2822 52.4153 60.2814 54.5264C59.3063 55.5567 58.0599 56.8032 56.5834 58.2291C54.0721 60.7404 50.6454 62.0007 46.3633 62.0007Z" stroke="#738B69" stroke-width="3" stroke-miterlimit="10"/>
</svg>
