<svg width="102" height="101" viewBox="0 0 102 101" fill="none" xmlns="http://www.w3.org/2000/svg">
<circle cx="51" cy="50.5007" r="50.5" fill="#738B69"/>
<path fill-rule="evenodd" clip-rule="evenodd" d="M60.8633 85.0013C51.8482 85.0013 40.5472 79.2979 31.3758 70.1173C17.3657 56.0934 12.3614 38.2887 20.2174 30.4281C21.8364 28.7861 22.3562 28.2617 23.9522 26.6933C25.0285 25.6354 26.6843 25.0007 28.3815 25.0007C30.0787 25.0007 31.5736 25.6032 32.6775 26.6933C34.3379 28.3307 37.0838 31.8539 41.3154 37.7827L41.3936 37.8885L41.4809 37.9851C41.9225 38.4772 42.7504 39.3925 40.9612 41.8027C40.6438 42.2304 40.2529 42.6858 39.7377 43.2285C39.4848 43.4953 39.287 43.6931 38.873 44.1071L36.3985 46.5862C33.3812 49.6035 42.4928 58.7979 42.5894 58.8899C46.3242 62.6293 51.1629 65.7846 53.1499 65.7846C53.8168 65.7846 54.4332 65.5362 54.8885 65.0808L57.3631 62.6063C58.7245 61.2448 59.3041 60.7343 60.0768 60.2283C60.8587 59.7178 61.5854 59.4464 62.1834 59.4464C62.4823 59.4464 62.9377 59.5016 63.4896 59.9984L63.5816 60.0812L63.6828 60.1548C69.9013 64.6025 73.2222 67.192 74.7768 68.811C77.3479 71.4834 76.7822 75.4159 74.7814 77.5271C73.8063 78.5574 72.5599 79.8039 71.0834 81.2297C68.5721 83.7411 65.1454 85.0013 60.8633 85.0013Z" stroke="white" stroke-width="3" stroke-miterlimit="10"/>
<path d="M56.2339 27.9152C64.7772 27.9152 73.1839 34.0659 72.6371 45.0007M53.5 19.0307C62.6129 18.5751 80.7703 23.1312 80.4969 45.0007" stroke="white" stroke-width="3" stroke-linecap="round"/>
</svg>
